<svg width="349" height="55" viewBox="0 0 349 55" fill="none" xmlns="http://www.w3.org/2000/svg">
<path d="M0 5C0 2.23857 2.23858 0 5 0H344C346.761 0 349 2.23858 349 5V50C349 52.7614 346.761 55 344 55H4.99999C2.23857 55 0 52.7614 0 50V5Z" fill="#FF2E00"/>
<path d="M146.068 29.728H141.412L140.612 32H138.708L142.692 20.864H144.804L148.788 32H146.868L146.068 29.728ZM145.556 28.24L143.748 23.072L141.924 28.24H145.556ZM149.912 27.552C149.912 26.6667 150.094 25.8827 150.456 25.2C150.83 24.5173 151.331 23.9893 151.96 23.616C152.6 23.232 153.31 23.04 154.088 23.04C154.664 23.04 155.23 23.168 155.784 23.424C156.35 23.6693 156.798 24 157.128 24.416V20.16H158.968V32H157.128V30.672C156.83 31.0987 156.414 31.4507 155.88 31.728C155.358 32.0053 154.755 32.144 154.072 32.144C153.304 32.144 152.6 31.952 151.96 31.568C151.331 31.1733 150.83 30.6293 150.456 29.936C150.094 29.232 149.912 28.4373 149.912 27.552ZM157.128 27.584C157.128 26.976 157 26.448 156.744 26C156.499 25.552 156.174 25.2107 155.768 24.976C155.363 24.7413 154.926 24.624 154.456 24.624C153.987 24.624 153.55 24.7413 153.144 24.976C152.739 25.2 152.408 25.536 152.152 25.984C151.907 26.4213 151.784 26.944 151.784 27.552C151.784 28.16 151.907 28.6933 152.152 29.152C152.408 29.6107 152.739 29.9627 153.144 30.208C153.56 30.4427 153.998 30.56 154.456 30.56C154.926 30.56 155.363 30.4427 155.768 30.208C156.174 29.9733 156.499 29.632 156.744 29.184C157 28.7253 157.128 28.192 157.128 27.584ZM160.756 27.552C160.756 26.6667 160.937 25.8827 161.3 25.2C161.673 24.5173 162.175 23.9893 162.804 23.616C163.444 23.232 164.153 23.04 164.932 23.04C165.508 23.04 166.073 23.168 166.628 23.424C167.193 23.6693 167.641 24 167.972 24.416V20.16H169.812V32H167.972V30.672C167.673 31.0987 167.257 31.4507 166.724 31.728C166.201 32.0053 165.599 32.144 164.916 32.144C164.148 32.144 163.444 31.952 162.804 31.568C162.175 31.1733 161.673 30.6293 161.3 29.936C160.937 29.232 160.756 28.4373 160.756 27.552ZM167.972 27.584C167.972 26.976 167.844 26.448 167.588 26C167.343 25.552 167.017 25.2107 166.612 24.976C166.207 24.7413 165.769 24.624 165.3 24.624C164.831 24.624 164.393 24.7413 163.988 24.976C163.583 25.2 163.252 25.536 162.996 25.984C162.751 26.4213 162.628 26.944 162.628 27.552C162.628 28.16 162.751 28.6933 162.996 29.152C163.252 29.6107 163.583 29.9627 163.988 30.208C164.404 30.4427 164.841 30.56 165.3 30.56C165.769 30.56 166.207 30.4427 166.612 30.208C167.017 29.9733 167.343 29.632 167.588 29.184C167.844 28.7253 167.972 28.192 167.972 27.584ZM177.292 22.016C176.961 22.016 176.684 21.904 176.46 21.68C176.236 21.456 176.124 21.1787 176.124 20.848C176.124 20.5173 176.236 20.24 176.46 20.016C176.684 19.792 176.961 19.68 177.292 19.68C177.612 19.68 177.884 19.792 178.108 20.016C178.332 20.24 178.444 20.5173 178.444 20.848C178.444 21.1787 178.332 21.456 178.108 21.68C177.884 21.904 177.612 22.016 177.292 22.016ZM178.188 23.184V32H176.364V23.184H178.188ZM182.711 24.672V29.552C182.711 29.8827 182.785 30.1227 182.935 30.272C183.095 30.4107 183.361 30.48 183.735 30.48H184.855V32H183.415C182.593 32 181.964 31.808 181.527 31.424C181.089 31.04 180.871 30.416 180.871 29.552V24.672H179.831V23.184H180.871V20.992H182.711V23.184H184.855V24.672H182.711ZM194.616 27.376C194.616 27.7067 194.595 28.0053 194.552 28.272H187.816C187.869 28.976 188.131 29.5413 188.6 29.968C189.069 30.3947 189.645 30.608 190.328 30.608C191.309 30.608 192.003 30.1973 192.408 29.376H194.376C194.109 30.1867 193.624 30.8533 192.92 31.376C192.227 31.888 191.363 32.144 190.328 32.144C189.485 32.144 188.728 31.9573 188.056 31.584C187.395 31.2 186.872 30.6667 186.488 29.984C186.115 29.2907 185.928 28.4907 185.928 27.584C185.928 26.6773 186.109 25.8827 186.472 25.2C186.845 24.5067 187.363 23.9733 188.024 23.6C188.696 23.2267 189.464 23.04 190.328 23.04C191.16 23.04 191.901 23.2213 192.552 23.584C193.203 23.9467 193.709 24.4587 194.072 25.12C194.435 25.7707 194.616 26.5227 194.616 27.376ZM192.712 26.8C192.701 26.128 192.461 25.5893 191.992 25.184C191.523 24.7787 190.941 24.576 190.248 24.576C189.619 24.576 189.08 24.7787 188.632 25.184C188.184 25.5787 187.917 26.1173 187.832 26.8H192.712ZM207.083 23.04C207.776 23.04 208.395 23.184 208.939 23.472C209.494 23.76 209.926 24.1867 210.235 24.752C210.555 25.3173 210.715 26 210.715 26.8V32H208.907V27.072C208.907 26.2827 208.71 25.68 208.315 25.264C207.92 24.8373 207.382 24.624 206.699 24.624C206.016 24.624 205.472 24.8373 205.067 25.264C204.672 25.68 204.475 26.2827 204.475 27.072V32H202.667V27.072C202.667 26.2827 202.47 25.68 202.075 25.264C201.68 24.8373 201.142 24.624 200.459 24.624C199.776 24.624 199.232 24.8373 198.827 25.264C198.432 25.68 198.235 26.2827 198.235 27.072V32H196.411V23.184H198.235V24.192C198.534 23.8293 198.912 23.5467 199.371 23.344C199.83 23.1413 200.32 23.04 200.843 23.04C201.547 23.04 202.176 23.1893 202.731 23.488C203.286 23.7867 203.712 24.2187 204.011 24.784C204.278 24.2507 204.694 23.8293 205.259 23.52C205.824 23.2 206.432 23.04 207.083 23.04Z" fill="white"/>
</svg>
